<svg width="769" height="327" viewBox="0 0 769 327" fill="none" xmlns="http://www.w3.org/2000/svg">
<path d="M387.512 149.067C383.906 149.067 380.656 148.439 377.762 147.182C374.869 145.924 372.402 144.134 370.362 141.809C368.345 139.484 366.803 136.685 365.736 133.412C364.669 130.115 364.135 126.438 364.135 122.382C364.135 117.021 365.06 112.348 366.91 108.363C368.784 104.354 371.465 101.246 374.952 99.0403C378.438 96.8343 382.625 95.7313 387.512 95.7313C392.967 95.7313 397.403 97.0122 400.819 99.5741C404.259 102.112 406.654 105.528 408.006 109.821L402.74 111.102C401.626 107.971 399.787 105.469 397.225 103.595C394.687 101.721 391.52 100.784 387.725 100.784C383.716 100.76 380.384 101.661 377.727 103.488C375.07 105.291 373.066 107.829 371.714 111.102C370.385 114.352 369.709 118.112 369.686 122.382C369.662 126.651 370.314 130.411 371.642 133.661C372.995 136.887 375.011 139.425 377.691 141.275C380.372 143.102 383.716 144.027 387.725 144.05C391.402 144.05 394.438 143.339 396.834 141.916C399.23 140.492 401.044 138.452 402.278 135.796C403.535 133.139 404.247 129.996 404.413 126.367H392.6V121.883H409.892C409.963 122.429 409.999 123.01 409.999 123.627C410.023 124.22 410.035 124.647 410.035 124.908C410.035 129.533 409.204 133.673 407.544 137.326C405.883 140.955 403.381 143.825 400.036 145.936C396.715 148.024 392.54 149.067 387.512 149.067ZM417.868 148V95.6957H423.098V148H417.868ZM449.813 149.067C445.994 149.067 442.732 148.202 440.028 146.47C437.324 144.738 435.248 142.343 433.801 139.283C432.354 136.223 431.631 132.712 431.631 128.751C431.631 124.718 432.366 121.184 433.837 118.147C435.307 115.111 437.395 112.751 440.099 111.067C442.827 109.359 446.065 108.505 449.813 108.505C453.655 108.505 456.929 109.371 459.633 111.102C462.361 112.81 464.436 115.194 465.86 118.254C467.307 121.29 468.03 124.789 468.03 128.751C468.03 132.783 467.307 136.329 465.86 139.389C464.413 142.426 462.325 144.798 459.597 146.506C456.87 148.213 453.608 149.067 449.813 149.067ZM449.813 144.05C454.082 144.05 457.261 142.639 459.348 139.816C461.436 136.97 462.479 133.281 462.479 128.751C462.479 124.101 461.424 120.401 459.313 117.649C457.225 114.898 454.059 113.522 449.813 113.522C446.942 113.522 444.57 114.174 442.696 115.479C440.846 116.76 439.458 118.551 438.533 120.852C437.632 123.129 437.181 125.762 437.181 128.751C437.181 133.376 438.249 137.088 440.384 139.887C442.518 142.663 445.661 144.05 449.813 144.05ZM493.136 149.067C489.602 149.067 486.613 148.178 484.17 146.399C481.726 144.596 479.876 142.165 478.619 139.105C477.362 136.021 476.733 132.57 476.733 128.751C476.733 124.86 477.362 121.397 478.619 118.361C479.9 115.301 481.774 112.893 484.241 111.138C486.708 109.383 489.744 108.505 493.349 108.505C496.86 108.505 499.873 109.394 502.387 111.174C504.901 112.953 506.823 115.372 508.151 118.432C509.503 121.492 510.179 124.932 510.179 128.751C510.179 132.593 509.503 136.045 508.151 139.105C506.799 142.165 504.854 144.596 502.316 146.399C499.778 148.178 496.718 149.067 493.136 149.067ZM475.844 148V96.7632H481.11V119.073H480.54V148H475.844ZM492.602 144.193C495.283 144.193 497.512 143.517 499.292 142.165C501.071 140.813 502.399 138.974 503.277 136.65C504.178 134.301 504.629 131.668 504.629 128.751C504.629 125.857 504.19 123.247 503.312 120.923C502.435 118.598 501.094 116.76 499.292 115.408C497.512 114.056 495.247 113.38 492.496 113.38C489.815 113.38 487.585 114.032 485.806 115.337C484.051 116.641 482.734 118.456 481.857 120.78C480.979 123.081 480.54 125.738 480.54 128.751C480.54 131.716 480.979 134.372 481.857 136.721C482.734 139.045 484.063 140.872 485.842 142.2C487.621 143.529 489.874 144.193 492.602 144.193ZM528.987 149.067C526.093 149.067 523.662 148.546 521.693 147.502C519.748 146.458 518.289 145.07 517.317 143.339C516.344 141.607 515.858 139.721 515.858 137.681C515.858 135.594 516.273 133.815 517.103 132.344C517.957 130.85 519.108 129.628 520.555 128.679C522.025 127.731 523.721 127.007 525.643 126.509C527.588 126.035 529.735 125.619 532.083 125.264C534.455 124.884 536.768 124.564 539.021 124.303C541.298 124.018 543.291 123.746 544.999 123.485L543.149 124.623C543.22 120.828 542.484 118.017 540.943 116.19C539.401 114.364 536.72 113.451 532.901 113.451C530.268 113.451 528.038 114.044 526.212 115.23C524.409 116.416 523.14 118.29 522.405 120.852L517.317 119.357C518.194 115.918 519.962 113.249 522.618 111.351C525.275 109.454 528.726 108.505 532.972 108.505C536.483 108.505 539.46 109.169 541.903 110.497C544.37 111.802 546.114 113.7 547.134 116.19C547.608 117.305 547.916 118.551 548.059 119.926C548.201 121.302 548.272 122.702 548.272 124.125V148H543.611V138.358L544.963 138.927C543.659 142.224 541.63 144.738 538.879 146.47C536.127 148.202 532.83 149.067 528.987 149.067ZM529.592 144.549C532.035 144.549 534.17 144.11 535.997 143.232C537.823 142.354 539.294 141.157 540.409 139.638C541.524 138.097 542.247 136.365 542.579 134.444C542.864 133.21 543.018 131.858 543.042 130.387C543.066 128.893 543.077 127.778 543.077 127.043L545.07 128.075C543.291 128.312 541.358 128.549 539.27 128.786C537.207 129.023 535.167 129.296 533.15 129.605C531.158 129.913 529.355 130.281 527.742 130.708C526.651 131.016 525.595 131.455 524.575 132.024C523.555 132.57 522.713 133.305 522.049 134.23C521.409 135.155 521.088 136.306 521.088 137.681C521.088 138.796 521.361 139.876 521.907 140.919C522.476 141.963 523.377 142.829 524.611 143.517C525.868 144.205 527.528 144.549 529.592 144.549ZM558.247 148V95.6957H563.477V148H558.247ZM380.609 233V186.78H362.712V181.763H403.737V186.78H385.839V233H380.609ZM420.004 234.067C416.257 234.067 413.007 233.237 410.255 231.577C407.527 229.916 405.404 227.58 403.886 224.567C402.368 221.555 401.609 218.02 401.609 213.964C401.609 209.766 402.356 206.136 403.851 203.076C405.345 200.016 407.444 197.656 410.149 195.996C412.876 194.335 416.091 193.505 419.791 193.505C423.586 193.505 426.824 194.383 429.505 196.138C432.185 197.87 434.213 200.36 435.589 203.61C436.965 206.86 437.593 210.738 437.475 215.245H432.138V213.395C432.043 208.413 430.963 204.654 428.9 202.116C426.86 199.577 423.871 198.308 419.933 198.308C415.806 198.308 412.639 199.649 410.433 202.329C408.251 205.01 407.16 208.829 407.16 213.786C407.16 218.625 408.251 222.385 410.433 225.065C412.639 227.722 415.758 229.05 419.791 229.05C422.543 229.05 424.938 228.422 426.978 227.165C429.042 225.884 430.667 224.045 431.853 221.65L436.728 223.535C435.209 226.88 432.968 229.477 430.003 231.328C427.061 233.154 423.729 234.067 420.004 234.067ZM405.309 215.245V210.869H434.664V215.245H405.309ZM461.311 234.067C457.445 234.067 454.171 233.202 451.491 231.47C448.811 229.738 446.771 227.354 445.371 224.318C443.995 221.258 443.284 217.748 443.236 213.786C443.284 209.754 444.019 206.219 445.442 203.183C446.865 200.123 448.917 197.751 451.598 196.067C454.278 194.359 457.528 193.505 461.347 193.505C465.237 193.505 468.617 194.454 471.488 196.351C474.382 198.249 476.362 200.847 477.43 204.144L472.306 205.78C471.405 203.48 469.969 201.7 468.001 200.443C466.056 199.162 463.826 198.522 461.311 198.522C458.489 198.522 456.152 199.174 454.302 200.479C452.452 201.76 451.076 203.551 450.175 205.852C449.273 208.153 448.811 210.797 448.787 213.786C448.834 218.388 449.902 222.088 451.989 224.887C454.077 227.663 457.184 229.05 461.311 229.05C463.921 229.05 466.139 228.457 467.965 227.271C469.815 226.062 471.215 224.306 472.164 222.005L477.43 223.571C476.006 226.987 473.919 229.596 471.167 231.399C468.416 233.178 465.13 234.067 461.311 234.067ZM512.528 233V213.395C512.528 211.26 512.326 209.303 511.923 207.524C511.52 205.721 510.867 204.156 509.966 202.827C509.088 201.475 507.938 200.431 506.514 199.696C505.115 198.961 503.407 198.593 501.391 198.593C499.541 198.593 497.904 198.913 496.481 199.554C495.081 200.194 493.895 201.119 492.922 202.329C491.974 203.515 491.25 204.962 490.752 206.67C490.254 208.378 490.005 210.323 490.005 212.505L486.304 211.687C486.304 207.749 486.992 204.44 488.368 201.76C489.744 199.079 491.642 197.051 494.061 195.675C496.481 194.3 499.256 193.612 502.387 193.612C504.688 193.612 506.692 193.967 508.4 194.679C510.132 195.391 511.591 196.351 512.777 197.561C513.987 198.771 514.959 200.159 515.694 201.724C516.43 203.266 516.963 204.915 517.296 206.67C517.628 208.402 517.794 210.133 517.794 211.865V233H512.528ZM484.739 233V181.763H489.471V210.691H490.005V233H484.739ZM554.78 233V213.395C554.78 211.26 554.579 209.303 554.175 207.524C553.772 205.721 553.12 204.156 552.218 202.827C551.341 201.475 550.19 200.431 548.767 199.696C547.368 198.961 545.66 198.593 543.643 198.593C541.793 198.593 540.156 198.913 538.733 199.554C537.334 200.194 536.148 201.119 535.175 202.329C534.226 203.515 533.503 204.962 533.005 206.67C532.506 208.378 532.257 210.323 532.257 212.505L528.557 211.687C528.557 207.749 529.245 204.44 530.621 201.76C531.996 199.079 533.894 197.051 536.314 195.675C538.733 194.3 541.509 193.612 544.64 193.612C546.941 193.612 548.945 193.967 550.653 194.679C552.384 195.391 553.843 196.351 555.029 197.561C556.239 198.771 557.212 200.159 557.947 201.724C558.682 203.266 559.216 204.915 559.548 206.67C559.88 208.402 560.046 210.133 560.046 211.865V233H554.78ZM526.991 233V194.572H531.724V204.037H532.257V233H526.991ZM585.118 234.067C581.299 234.067 578.038 233.202 575.333 231.47C572.629 229.738 570.554 227.343 569.107 224.283C567.66 221.223 566.936 217.712 566.936 213.751C566.936 209.718 567.672 206.184 569.142 203.147C570.613 200.111 572.7 197.751 575.405 196.067C578.132 194.359 581.37 193.505 585.118 193.505C588.961 193.505 592.234 194.371 594.939 196.102C597.667 197.81 599.742 200.194 601.165 203.254C602.612 206.29 603.336 209.789 603.336 213.751C603.336 217.783 602.612 221.329 601.165 224.389C599.718 227.426 597.631 229.798 594.903 231.506C592.175 233.213 588.914 234.067 585.118 234.067ZM585.118 229.05C589.388 229.05 592.567 227.639 594.654 224.816C596.741 221.97 597.785 218.281 597.785 213.751C597.785 209.101 596.73 205.401 594.618 202.649C592.531 199.898 589.364 198.522 585.118 198.522C582.248 198.522 579.876 199.174 578.002 200.479C576.152 201.76 574.764 203.551 573.839 205.852C572.938 208.129 572.487 210.762 572.487 213.751C572.487 218.376 573.554 222.088 575.689 224.887C577.824 227.663 580.967 229.05 585.118 229.05ZM611.896 233V180.696H617.127V233H611.896ZM643.841 234.067C640.022 234.067 636.76 233.202 634.056 231.47C631.352 229.738 629.276 227.343 627.83 224.283C626.383 221.223 625.659 217.712 625.659 213.751C625.659 209.718 626.394 206.184 627.865 203.147C629.336 200.111 631.423 197.751 634.127 196.067C636.855 194.359 640.093 193.505 643.841 193.505C647.684 193.505 650.957 194.371 653.661 196.102C656.389 197.81 658.465 200.194 659.888 203.254C661.335 206.29 662.059 209.789 662.059 213.751C662.059 217.783 661.335 221.329 659.888 224.389C658.441 227.426 656.354 229.798 653.626 231.506C650.898 233.213 647.636 234.067 643.841 234.067ZM643.841 229.05C648.111 229.05 651.289 227.639 653.377 224.816C655.464 221.97 656.508 218.281 656.508 213.751C656.508 209.101 655.452 205.401 653.341 202.649C651.254 199.898 648.087 198.522 643.841 198.522C640.971 198.522 638.599 199.174 636.725 200.479C634.875 201.76 633.487 203.551 632.562 205.852C631.66 208.129 631.21 210.762 631.21 213.751C631.21 218.376 632.277 222.088 634.412 224.887C636.547 227.663 639.69 229.05 643.841 229.05ZM685.172 251.146C683.203 251.146 681.258 250.85 679.337 250.257C677.439 249.688 675.684 248.774 674.071 247.517C672.458 246.284 671.105 244.671 670.014 242.678L674.747 240.045C675.814 242.18 677.308 243.71 679.23 244.635C681.175 245.584 683.156 246.058 685.172 246.058C687.947 246.058 690.189 245.536 691.897 244.493C693.628 243.473 694.886 241.955 695.668 239.938C696.451 237.922 696.831 235.408 696.807 232.395V222.148H697.412V194.572H702.073V232.466C702.073 233.557 702.037 234.601 701.966 235.597C701.919 236.617 701.812 237.614 701.646 238.586C701.195 241.456 700.258 243.817 698.835 245.667C697.435 247.517 695.585 248.893 693.284 249.794C691.007 250.696 688.303 251.146 685.172 251.146ZM684.816 234.067C681.234 234.067 678.174 233.178 675.636 231.399C673.098 229.596 671.153 227.165 669.801 224.105C668.449 221.045 667.773 217.593 667.773 213.751C667.773 209.932 668.437 206.492 669.765 203.432C671.117 200.372 673.051 197.953 675.565 196.174C678.079 194.394 681.092 193.505 684.603 193.505C688.208 193.505 691.244 194.383 693.711 196.138C696.178 197.893 698.04 200.301 699.298 203.361C700.578 206.397 701.219 209.86 701.219 213.751C701.219 217.57 700.59 221.021 699.333 224.105C698.076 227.165 696.226 229.596 693.782 231.399C691.339 233.178 688.35 234.067 684.816 234.067ZM685.35 229.193C688.078 229.193 690.331 228.529 692.11 227.2C693.889 225.872 695.218 224.045 696.095 221.721C696.973 219.372 697.412 216.716 697.412 213.751C697.412 210.738 696.973 208.081 696.095 205.78C695.218 203.456 693.889 201.641 692.11 200.337C690.355 199.032 688.137 198.38 685.456 198.38C682.705 198.38 680.428 199.056 678.625 200.408C676.822 201.76 675.482 203.598 674.604 205.923C673.75 208.247 673.323 210.857 673.323 213.751C673.323 216.668 673.762 219.301 674.64 221.65C675.541 223.974 676.881 225.813 678.66 227.165C680.44 228.517 682.669 229.193 685.35 229.193ZM717.501 250.079L724.937 229.904L725.044 235.882L708.214 194.572H713.765L727.57 229.122H725.293L738.031 194.572H743.368L722.731 250.079H717.501Z" fill="white"/>
<g clip-path="url(#clip0_17_9)">
<g filter="url(#filter0_d_17_9)">
<path d="M204.291 34.5501C153.682 39.1289 107.05 69.9757 85.3613 113.354C82.9513 117.933 79.8185 125.162 78.3726 129.259C76.9266 133.477 75.623 137.365 75.141 137.365C72.8516 137.365 42.9991 106.317 38.8534 98.8777C27.5269 80.9239 26.0776 62.3845 36.3197 52.8653C40.5371 49.0095 51.6226 44.1897 61.1417 42.2618C77.7701 38.7674 115.967 40.5748 136.33 45.7561C141.031 47.0815 143.44 47.0815 145.247 46.2381C147.175 45.1537 146.091 44.5512 138.018 42.6232C121.028 38.6469 105.966 36.8395 87.7712 36.8395C67.6484 36.8395 55.3579 38.7674 44.5133 43.5872C20.6553 54.3113 18.9683 80.4588 40.4165 108.534C46.8027 116.969 59.9368 130.223 69.6969 138.055L74.9987 142.273L73.4322 150.587C71.7453 160.227 72.5888 190.23 74.7576 197.459C75.8421 201.074 76.6856 201.918 79.216 201.918C81.8669 201.918 82.2283 201.556 81.5054 198.544C78.8545 186.012 78.011 171.432 79.4569 160.227C80.18 153.72 81.0234 148.177 81.2645 147.936C81.5054 147.695 86.8072 151.069 93.073 155.286C110.424 167.336 135.849 182.277 146.694 186.856C149.947 188.182 150.55 188.182 151.152 186.735C151.633 185.531 150.188 184.205 146.332 182.639C131.511 176.252 83.1924 145.406 83.1924 142.273C83.1924 139.863 90.0606 124.439 94.1574 117.33C110.906 88.7729 139.946 62.7459 168.864 50.5759C185.975 43.3462 200.916 40.3338 227.545 38.5264C234.293 38.0444 239.837 37.3215 239.837 36.719C239.837 34.4296 219.231 33.2246 204.291 34.5501Z" fill="white"/>
<path d="M241.915 114.319C231.913 115.885 217.04 118.582 194.387 126.655C161.371 138.463 152.214 144.006 158.117 148.826C159.684 150.151 162.816 149.187 176.553 143.765C222.703 125.329 241.018 120.751 268.492 120.63C288.734 120.63 297.509 121.528 306.062 128.125C310.338 132.355 312.711 132.183 314.004 146.406C314.615 153.126 309.481 175.729 302.342 190.035C286.921 220.936 272.462 237.43 232.754 262.477C209.834 271.725 208.926 273.764 182.337 275.948C164.865 275.948 157.274 274.623 143.176 269.201C121.969 261.006 99.6774 242.089 90.7607 224.617C86.6639 216.544 85.4589 215.219 82.8081 215.219C78.2293 215.219 77.9882 216.062 80.6391 222.81C91.2427 249.801 119.98 273.885 154.803 282.561C178.994 288.589 203.616 283.485 216.87 279.629C275.517 257.59 321.335 202.988 321.335 142.74C319.502 126.246 316.447 126.246 311.56 121.359C303.863 115.861 292.831 112.677 268.492 112.195C257.526 111.954 245.891 113.716 241.915 114.319Z" fill="white"/>
<path d="M51.984 147.213C21.1372 165.167 3.66541 182.277 3.66541 194.326C3.66541 198.544 3.7859 200.947 7.28026 204.442C12.9435 210.105 21.4987 211.558 39.2115 212.401C78.1315 214.329 155.368 202.762 209.109 187.097C217.906 184.567 218.99 184.446 221.882 186.133C224.774 187.699 225.376 187.699 228.268 185.892C231.642 183.603 232.606 178.301 229.956 175.65C227.666 173.36 222.725 173.963 219.473 177.095C212.122 184.084 146.211 198.785 94.0368 205.05C69.6967 208.063 29.8129 208.184 20.4143 205.292C12.9435 202.881 7.28026 198.182 7.28026 194.207C7.28026 187.578 19.5707 174.084 35.8376 162.636C43.3083 157.576 62.3466 146.129 65.5999 144.924C66.4434 144.562 66.323 143.719 65.118 142.393C63.4311 140.706 62.2261 141.188 51.984 147.213Z" fill="white"/>
</g>
</g>
<defs>
<filter id="filter0_d_17_9" x="0.05055" y="33.9999" width="324.899" height="258.567" filterUnits="userSpaceOnUse" color-interpolation-filters="sRGB">
<feFlood flood-opacity="0" result="BackgroundImageFix"/>
<feColorMatrix in="SourceAlpha" type="matrix" values="0 0 0 0 0 0 0 0 0 0 0 0 0 0 0 0 0 0 127 0" result="hardAlpha"/>
<feOffset dy="3.61486"/>
<feGaussianBlur stdDeviation="1.80743"/>
<feComposite in2="hardAlpha" operator="out"/>
<feColorMatrix type="matrix" values="0 0 0 0 0 0 0 0 0 0 0 0 0 0 0 0 0 0 0.25 0"/>
<feBlend mode="normal" in2="BackgroundImageFix" result="effect1_dropShadow_17_9"/>
<feBlend mode="normal" in="SourceGraphic" in2="effect1_dropShadow_17_9" result="shape"/>
</filter>
<clipPath id="clip0_17_9">
<rect width="325" height="259.023" fill="white" transform="translate(0 34)"/>
</clipPath>
</defs>
</svg>
